<?xml version="1.0" encoding="UTF-8" standalone="no"?>
<!DOCTYPE svg PUBLIC "-//W3C//DTD SVG 1.1//EN"
 "http://www.w3.org/Graphics/SVG/1.1/DTD/svg11.dtd">
<!-- Generated by graphviz version 2.40.1 (20161225.0304)
 -->
<!-- Title: Tree Pages: 1 -->
<svg width="875pt" height="467pt"
 viewBox="0.00 0.00 874.79 467.20" xmlns="http://www.w3.org/2000/svg" xmlns:xlink="http://www.w3.org/1999/xlink">
<g id="graph0" class="graph" transform="scale(1 1) rotate(0) translate(4 463.2)">
<title>Tree</title>
<polygon fill="#ffffff" stroke="transparent" points="-4,4 -4,-463.2 870.793,-463.2 870.793,4 -4,4"/>
<!-- 0 -->
<g id="node1" class="node">
<title>0</title>
<path fill="transparent" stroke="#000000" d="M411.6896,-459.2C411.6896,-459.2 277.1034,-459.2 277.1034,-459.2 271.1034,-459.2 265.1034,-453.2 265.1034,-447.2 265.1034,-447.2 265.1034,-379.2 265.1034,-379.2 265.1034,-373.2 271.1034,-367.2 277.1034,-367.2 277.1034,-367.2 411.6896,-367.2 411.6896,-367.2 417.6896,-367.2 423.6896,-373.2 423.6896,-379.2 423.6896,-379.2 423.6896,-447.2 423.6896,-447.2 423.6896,-453.2 417.6896,-459.2 411.6896,-459.2"/>
<text text-anchor="middle" x="344.3965" y="-442.6" font-family="Helvetica,sans-Serif" font-size="14.00" fill="#000000">Age &lt;= 25.5</text>
<text text-anchor="middle" x="344.3965" y="-425.8" font-family="Helvetica,sans-Serif" font-size="14.00" fill="#000000">gini = 0.833</text>
<text text-anchor="middle" x="344.3965" y="-409" font-family="Helvetica,sans-Serif" font-size="14.00" fill="#000000">samples = 18</text>
<text text-anchor="middle" x="344.3965" y="-392.2" font-family="Helvetica,sans-Serif" font-size="14.00" fill="#000000">value = [3, 3, 3, 3, 3, 3]</text>
<text text-anchor="middle" x="344.3965" y="-375.4" font-family="Helvetica,sans-Serif" font-size="14.00" fill="#000000">class = Acoustic</text>
</g>
<!-- 1 -->
<g id="node2" class="node">
<title>1</title>
<path fill="transparent" stroke="#000000" d="M323.6896,-331.2C323.6896,-331.2 189.1034,-331.2 189.1034,-331.2 183.1034,-331.2 177.1034,-325.2 177.1034,-319.2 177.1034,-319.2 177.1034,-251.2 177.1034,-251.2 177.1034,-245.2 183.1034,-239.2 189.1034,-239.2 189.1034,-239.2 323.6896,-239.2 323.6896,-239.2 329.6896,-239.2 335.6896,-245.2 335.6896,-251.2 335.6896,-251.2 335.6896,-319.2 335.6896,-319.2 335.6896,-325.2 329.6896,-331.2 323.6896,-331.2"/>
<text text-anchor="middle" x="256.3965" y="-314.6" font-family="Helvetica,sans-Serif" font-size="14.00" fill="#000000">Gender &lt;= 0.5</text>
<text text-anchor="middle" x="256.3965" y="-297.8" font-family="Helvetica,sans-Serif" font-size="14.00" fill="#000000">gini = 0.5</text>
<text text-anchor="middle" x="256.3965" y="-281" font-family="Helvetica,sans-Serif" font-size="14.00" fill="#000000">samples = 6</text>
<text text-anchor="middle" x="256.3965" y="-264.2" font-family="Helvetica,sans-Serif" font-size="14.00" fill="#000000">value = [0, 0, 3, 3, 0, 0]</text>
<text text-anchor="middle" x="256.3965" y="-247.4" font-family="Helvetica,sans-Serif" font-size="14.00" fill="#000000">class = Edm</text>
</g>
<!-- 0&#45;&gt;1 -->
<g id="edge1" class="edge">
<title>0&#45;&gt;1</title>
<path fill="none" stroke="#000000" d="M312.6265,-366.9891C306.5202,-358.1072 300.0726,-348.7289 293.8074,-339.6158"/>
<polygon fill="#000000" stroke="#000000" points="296.6694,-337.6007 288.1199,-331.3431 290.9011,-341.5664 296.6694,-337.6007"/>
<text text-anchor="middle" x="283.5677" y="-351.7252" font-family="Helvetica,sans-Serif" font-size="14.00" fill="#000000">True</text>
</g>
<!-- 4 -->
<g id="node5" class="node">
<title>4</title>
<path fill="transparent" stroke="#000000" d="M500.6896,-331.2C500.6896,-331.2 366.1034,-331.2 366.1034,-331.2 360.1034,-331.2 354.1034,-325.2 354.1034,-319.2 354.1034,-319.2 354.1034,-251.2 354.1034,-251.2 354.1034,-245.2 360.1034,-239.2 366.1034,-239.2 366.1034,-239.2 500.6896,-239.2 500.6896,-239.2 506.6896,-239.2 512.6896,-245.2 512.6896,-251.2 512.6896,-251.2 512.6896,-319.2 512.6896,-319.2 512.6896,-325.2 506.6896,-331.2 500.6896,-331.2"/>
<text text-anchor="middle" x="433.3965" y="-314.6" font-family="Helvetica,sans-Serif" font-size="14.00" fill="#000000">Gender &lt;= 0.5</text>
<text text-anchor="middle" x="433.3965" y="-297.8" font-family="Helvetica,sans-Serif" font-size="14.00" fill="#000000">gini = 0.75</text>
<text text-anchor="middle" x="433.3965" y="-281" font-family="Helvetica,sans-Serif" font-size="14.00" fill="#000000">samples = 12</text>
<text text-anchor="middle" x="433.3965" y="-264.2" font-family="Helvetica,sans-Serif" font-size="14.00" fill="#000000">value = [3, 3, 0, 0, 3, 3]</text>
<text text-anchor="middle" x="433.3965" y="-247.4" font-family="Helvetica,sans-Serif" font-size="14.00" fill="#000000">class = Acoustic</text>
</g>
<!-- 0&#45;&gt;4 -->
<g id="edge4" class="edge">
<title>0&#45;&gt;4</title>
<path fill="none" stroke="#000000" d="M376.5275,-366.9891C382.7032,-358.1072 389.2241,-348.7289 395.5605,-339.6158"/>
<polygon fill="#000000" stroke="#000000" points="398.4774,-341.5516 401.3126,-331.3431 392.7302,-337.5554 398.4774,-341.5516"/>
<text text-anchor="middle" x="405.7349" y="-351.7489" font-family="Helvetica,sans-Serif" font-size="14.00" fill="#000000">False</text>
</g>
<!-- 2 -->
<g id="node3" class="node">
<title>2</title>
<path fill="#39e581" stroke="#000000" d="M146.6896,-194.9003C146.6896,-194.9003 12.1034,-194.9003 12.1034,-194.9003 6.1034,-194.9003 .1034,-188.9003 .1034,-182.9003 .1034,-182.9003 .1034,-131.4997 .1034,-131.4997 .1034,-125.4997 6.1034,-119.4997 12.1034,-119.4997 12.1034,-119.4997 146.6896,-119.4997 146.6896,-119.4997 152.6896,-119.4997 158.6896,-125.4997 158.6896,-131.4997 158.6896,-131.4997 158.6896,-182.9003 158.6896,-182.9003 158.6896,-188.9003 152.6896,-194.9003 146.6896,-194.9003"/>
<text text-anchor="middle" x="79.3965" y="-178.2" font-family="Helvetica,sans-Serif" font-size="14.00" fill="#000000">gini = 0.0</text>
<text text-anchor="middle" x="79.3965" y="-161.4" font-family="Helvetica,sans-Serif" font-size="14.00" fill="#000000">samples = 3</text>
<text text-anchor="middle" x="79.3965" y="-144.6" font-family="Helvetica,sans-Serif" font-size="14.00" fill="#000000">value = [0, 0, 3, 0, 0, 0]</text>
<text text-anchor="middle" x="79.3965" y="-127.8" font-family="Helvetica,sans-Serif" font-size="14.00" fill="#000000">class = Edm</text>
</g>
<!-- 1&#45;&gt;2 -->
<g id="edge2" class="edge">
<title>1&#45;&gt;2</title>
<path fill="none" stroke="#000000" d="M192.4954,-238.9891C175.3057,-226.5581 156.7711,-213.1545 139.7795,-200.8668"/>
<polygon fill="#000000" stroke="#000000" points="141.729,-197.9573 131.5749,-194.9335 137.6271,-203.6296 141.729,-197.9573"/>
</g>
<!-- 3 -->
<g id="node4" class="node">
<title>3</title>
<path fill="#399de5" stroke="#000000" d="M323.6896,-194.9003C323.6896,-194.9003 189.1034,-194.9003 189.1034,-194.9003 183.1034,-194.9003 177.1034,-188.9003 177.1034,-182.9003 177.1034,-182.9003 177.1034,-131.4997 177.1034,-131.4997 177.1034,-125.4997 183.1034,-119.4997 189.1034,-119.4997 189.1034,-119.4997 323.6896,-119.4997 323.6896,-119.4997 329.6896,-119.4997 335.6896,-125.4997 335.6896,-131.4997 335.6896,-131.4997 335.6896,-182.9003 335.6896,-182.9003 335.6896,-188.9003 329.6896,-194.9003 323.6896,-194.9003"/>
<text text-anchor="middle" x="256.3965" y="-178.2" font-family="Helvetica,sans-Serif" font-size="14.00" fill="#000000">gini = 0.0</text>
<text text-anchor="middle" x="256.3965" y="-161.4" font-family="Helvetica,sans-Serif" font-size="14.00" fill="#000000">samples = 3</text>
<text text-anchor="middle" x="256.3965" y="-144.6" font-family="Helvetica,sans-Serif" font-size="14.00" fill="#000000">value = [0, 0, 0, 3, 0, 0]</text>
<text text-anchor="middle" x="256.3965" y="-127.8" font-family="Helvetica,sans-Serif" font-size="14.00" fill="#000000">class = Grunge</text>
</g>
<!-- 1&#45;&gt;3 -->
<g id="edge3" class="edge">
<title>1&#45;&gt;3</title>
<path fill="none" stroke="#000000" d="M256.3965,-238.9891C256.3965,-228.0272 256.3965,-216.309 256.3965,-205.2667"/>
<polygon fill="#000000" stroke="#000000" points="259.8966,-204.9335 256.3965,-194.9335 252.8966,-204.9335 259.8966,-204.9335"/>
</g>
<!-- 5 -->
<g id="node6" class="node">
<title>5</title>
<path fill="transparent" stroke="#000000" d="M500.6896,-203.2C500.6896,-203.2 366.1034,-203.2 366.1034,-203.2 360.1034,-203.2 354.1034,-197.2 354.1034,-191.2 354.1034,-191.2 354.1034,-123.2 354.1034,-123.2 354.1034,-117.2 360.1034,-111.2 366.1034,-111.2 366.1034,-111.2 500.6896,-111.2 500.6896,-111.2 506.6896,-111.2 512.6896,-117.2 512.6896,-123.2 512.6896,-123.2 512.6896,-191.2 512.6896,-191.2 512.6896,-197.2 506.6896,-203.2 500.6896,-203.2"/>
<text text-anchor="middle" x="433.3965" y="-186.6" font-family="Helvetica,sans-Serif" font-size="14.00" fill="#000000">Age &lt;= 30.5</text>
<text text-anchor="middle" x="433.3965" y="-169.8" font-family="Helvetica,sans-Serif" font-size="14.00" fill="#000000">gini = 0.5</text>
<text text-anchor="middle" x="433.3965" y="-153" font-family="Helvetica,sans-Serif" font-size="14.00" fill="#000000">samples = 6</text>
<text text-anchor="middle" x="433.3965" y="-136.2" font-family="Helvetica,sans-Serif" font-size="14.00" fill="#000000">value = [3, 0, 0, 0, 0, 3]</text>
<text text-anchor="middle" x="433.3965" y="-119.4" font-family="Helvetica,sans-Serif" font-size="14.00" fill="#000000">class = Acoustic</text>
</g>
<!-- 4&#45;&gt;5 -->
<g id="edge5" class="edge">
<title>4&#45;&gt;5</title>
<path fill="none" stroke="#000000" d="M433.3965,-238.9891C433.3965,-230.7417 433.3965,-222.0661 433.3965,-213.5724"/>
<polygon fill="#000000" stroke="#000000" points="436.8966,-213.3431 433.3965,-203.3431 429.8966,-213.3431 436.8966,-213.3431"/>
</g>
<!-- 8 -->
<g id="node9" class="node">
<title>8</title>
<path fill="transparent" stroke="#000000" d="M677.6896,-203.2C677.6896,-203.2 543.1034,-203.2 543.1034,-203.2 537.1034,-203.2 531.1034,-197.2 531.1034,-191.2 531.1034,-191.2 531.1034,-123.2 531.1034,-123.2 531.1034,-117.2 537.1034,-111.2 543.1034,-111.2 543.1034,-111.2 677.6896,-111.2 677.6896,-111.2 683.6896,-111.2 689.6896,-117.2 689.6896,-123.2 689.6896,-123.2 689.6896,-191.2 689.6896,-191.2 689.6896,-197.2 683.6896,-203.2 677.6896,-203.2"/>
<text text-anchor="middle" x="610.3965" y="-186.6" font-family="Helvetica,sans-Serif" font-size="14.00" fill="#000000">Age &lt;= 30.5</text>
<text text-anchor="middle" x="610.3965" y="-169.8" font-family="Helvetica,sans-Serif" font-size="14.00" fill="#000000">gini = 0.5</text>
<text text-anchor="middle" x="610.3965" y="-153" font-family="Helvetica,sans-Serif" font-size="14.00" fill="#000000">samples = 6</text>
<text text-anchor="middle" x="610.3965" y="-136.2" font-family="Helvetica,sans-Serif" font-size="14.00" fill="#000000">value = [0, 3, 0, 0, 3, 0]</text>
<text text-anchor="middle" x="610.3965" y="-119.4" font-family="Helvetica,sans-Serif" font-size="14.00" fill="#000000">class = Classical</text>
</g>
<!-- 4&#45;&gt;8 -->
<g id="edge8" class="edge">
<title>4&#45;&gt;8</title>
<path fill="none" stroke="#000000" d="M497.2976,-238.9891C510.5821,-229.3822 524.6698,-219.1944 538.2278,-209.3898"/>
<polygon fill="#000000" stroke="#000000" points="540.537,-212.0392 546.5892,-203.3431 536.4351,-206.367 540.537,-212.0392"/>
</g>
<!-- 6 -->
<g id="node7" class="node">
<title>6</title>
<path fill="#e58139" stroke="#000000" d="M323.6896,-75.3003C323.6896,-75.3003 189.1034,-75.3003 189.1034,-75.3003 183.1034,-75.3003 177.1034,-69.3003 177.1034,-63.3003 177.1034,-63.3003 177.1034,-11.8997 177.1034,-11.8997 177.1034,-5.8997 183.1034,.1003 189.1034,.1003 189.1034,.1003 323.6896,.1003 323.6896,.1003 329.6896,.1003 335.6896,-5.8997 335.6896,-11.8997 335.6896,-11.8997 335.6896,-63.3003 335.6896,-63.3003 335.6896,-69.3003 329.6896,-75.3003 323.6896,-75.3003"/>
<text text-anchor="middle" x="256.3965" y="-58.6" font-family="Helvetica,sans-Serif" font-size="14.00" fill="#000000">gini = 0.0</text>
<text text-anchor="middle" x="256.3965" y="-41.8" font-family="Helvetica,sans-Serif" font-size="14.00" fill="#000000">samples = 3</text>
<text text-anchor="middle" x="256.3965" y="-25" font-family="Helvetica,sans-Serif" font-size="14.00" fill="#000000">value = [3, 0, 0, 0, 0, 0]</text>
<text text-anchor="middle" x="256.3965" y="-8.2" font-family="Helvetica,sans-Serif" font-size="14.00" fill="#000000">class = Acoustic</text>
</g>
<!-- 5&#45;&gt;6 -->
<g id="edge6" class="edge">
<title>5&#45;&gt;6</title>
<path fill="none" stroke="#000000" d="M365.2169,-111.1306C350.5633,-101.2291 335.1241,-90.7967 320.6265,-81.0006"/>
<polygon fill="#000000" stroke="#000000" points="322.4578,-78.014 312.2125,-75.3152 318.5387,-83.814 322.4578,-78.014"/>
</g>
<!-- 7 -->
<g id="node8" class="node">
<title>7</title>
<path fill="#e5399d" stroke="#000000" d="M500.6896,-75.3003C500.6896,-75.3003 366.1034,-75.3003 366.1034,-75.3003 360.1034,-75.3003 354.1034,-69.3003 354.1034,-63.3003 354.1034,-63.3003 354.1034,-11.8997 354.1034,-11.8997 354.1034,-5.8997 360.1034,.1003 366.1034,.1003 366.1034,.1003 500.6896,.1003 500.6896,.1003 506.6896,.1003 512.6896,-5.8997 512.6896,-11.8997 512.6896,-11.8997 512.6896,-63.3003 512.6896,-63.3003 512.6896,-69.3003 506.6896,-75.3003 500.6896,-75.3003"/>
<text text-anchor="middle" x="433.3965" y="-58.6" font-family="Helvetica,sans-Serif" font-size="14.00" fill="#000000">gini = 0.0</text>
<text text-anchor="middle" x="433.3965" y="-41.8" font-family="Helvetica,sans-Serif" font-size="14.00" fill="#000000">samples = 3</text>
<text text-anchor="middle" x="433.3965" y="-25" font-family="Helvetica,sans-Serif" font-size="14.00" fill="#000000">value = [0, 0, 0, 0, 0, 3]</text>
<text text-anchor="middle" x="433.3965" y="-8.2" font-family="Helvetica,sans-Serif" font-size="14.00" fill="#000000">class = Jazz</text>
</g>
<!-- 5&#45;&gt;7 -->
<g id="edge7" class="edge">
<title>5&#45;&gt;7</title>
<path fill="none" stroke="#000000" d="M433.3965,-110.9595C433.3965,-102.5477 433.3965,-93.7581 433.3965,-85.3049"/>
<polygon fill="#000000" stroke="#000000" points="436.8966,-85.2088 433.3965,-75.2088 429.8966,-85.2089 436.8966,-85.2088"/>
</g>
<!-- 9 -->
<g id="node10" class="node">
<title>9</title>
<path fill="#8139e5" stroke="#000000" d="M677.6896,-75.3003C677.6896,-75.3003 543.1034,-75.3003 543.1034,-75.3003 537.1034,-75.3003 531.1034,-69.3003 531.1034,-63.3003 531.1034,-63.3003 531.1034,-11.8997 531.1034,-11.8997 531.1034,-5.8997 537.1034,.1003 543.1034,.1003 543.1034,.1003 677.6896,.1003 677.6896,.1003 683.6896,.1003 689.6896,-5.8997 689.6896,-11.8997 689.6896,-11.8997 689.6896,-63.3003 689.6896,-63.3003 689.6896,-69.3003 683.6896,-75.3003 677.6896,-75.3003"/>
<text text-anchor="middle" x="610.3965" y="-58.6" font-family="Helvetica,sans-Serif" font-size="14.00" fill="#000000">gini = 0.0</text>
<text text-anchor="middle" x="610.3965" y="-41.8" font-family="Helvetica,sans-Serif" font-size="14.00" fill="#000000">samples = 3</text>
<text text-anchor="middle" x="610.3965" y="-25" font-family="Helvetica,sans-Serif" font-size="14.00" fill="#000000">value = [0, 0, 0, 0, 3, 0]</text>
<text text-anchor="middle" x="610.3965" y="-8.2" font-family="Helvetica,sans-Serif" font-size="14.00" fill="#000000">class = HipHop</text>
</g>
<!-- 8&#45;&gt;9 -->
<g id="edge9" class="edge">
<title>8&#45;&gt;9</title>
<path fill="none" stroke="#000000" d="M610.3965,-110.9595C610.3965,-102.5477 610.3965,-93.7581 610.3965,-85.3049"/>
<polygon fill="#000000" stroke="#000000" points="613.8966,-85.2088 610.3965,-75.2088 606.8966,-85.2089 613.8966,-85.2088"/>
</g>
<!-- 10 -->
<g id="node11" class="node">
<title>10</title>
<path fill="#9de539" stroke="#000000" d="M854.6896,-75.3003C854.6896,-75.3003 720.1034,-75.3003 720.1034,-75.3003 714.1034,-75.3003 708.1034,-69.3003 708.1034,-63.3003 708.1034,-63.3003 708.1034,-11.8997 708.1034,-11.8997 708.1034,-5.8997 714.1034,.1003 720.1034,.1003 720.1034,.1003 854.6896,.1003 854.6896,.1003 860.6896,.1003 866.6896,-5.8997 866.6896,-11.8997 866.6896,-11.8997 866.6896,-63.3003 866.6896,-63.3003 866.6896,-69.3003 860.6896,-75.3003 854.6896,-75.3003"/>
<text text-anchor="middle" x="787.3965" y="-58.6" font-family="Helvetica,sans-Serif" font-size="14.00" fill="#000000">gini = 0.0</text>
<text text-anchor="middle" x="787.3965" y="-41.8" font-family="Helvetica,sans-Serif" font-size="14.00" fill="#000000">samples = 3</text>
<text text-anchor="middle" x="787.3965" y="-25" font-family="Helvetica,sans-Serif" font-size="14.00" fill="#000000">value = [0, 3, 0, 0, 0, 0]</text>
<text text-anchor="middle" x="787.3965" y="-8.2" font-family="Helvetica,sans-Serif" font-size="14.00" fill="#000000">class = Classical</text>
</g>
<!-- 8&#45;&gt;10 -->
<g id="edge10" class="edge">
<title>8&#45;&gt;10</title>
<path fill="none" stroke="#000000" d="M678.5761,-111.1306C693.2297,-101.2291 708.6689,-90.7967 723.1665,-81.0006"/>
<polygon fill="#000000" stroke="#000000" points="725.2543,-83.814 731.5805,-75.3152 721.3352,-78.014 725.2543,-83.814"/>
</g>
</g>
</svg>
